<svg width="133" height="133" viewBox="0 0 133 133" fill="none" xmlns="http://www.w3.org/2000/svg"><path d="M59.22 54.283l.16 3.709-2.575 4.837-4.025 7.9-.805 6.61 2.898 9.352 6.6 3.709h9.98l9.337-7.095 4.185-11.125-9.658-11.77-2.737-6.61-13.36.483z" fill="#ECEFF1"/><path d="M82.349 63.412c-2.564-3.714-4.648-5.975-5.77-10.657-1.121-4.683.321-3.392-.64-7.428-.481-2.1-1.283-3.553-2.084-4.683-.962-1.13-2.083-1.776-2.724-1.938-1.443-.807-4.808-2.099-8.975.162-4.327 2.26-3.846 7.105-3.045 16.954 0 .646-.16 1.454-.48 2.1-.642 1.453-1.764 2.745-2.725 3.875-1.122 1.615-2.244 3.23-3.045 5.006-1.923 3.714-3.686 8.396-3.206 10.173.802-.162 10.898 15.34 10.898 15.663.641-.162 3.366-.162 5.77-.162 3.365-.161 5.288-.323 8.013.323 0-.484-.16-.969-.16-1.453 0-.969.16-1.776.32-2.907.16-.807.32-1.614.48-2.583-1.602 1.453-4.486 3.068-7.21 3.552-2.405.485-6.412-.323-8.335-2.745.16 0 .481 0 .641-.161.481-.162.962-.323 1.122-.646.481-.808.16-1.615-.16-2.1-.32-.484-2.724-2.26-3.846-3.229-1.122-.969-1.763-1.453-2.404-2.1l-1.282-1.29c-.32-.324-.481-.647-.641-.808-.32-.808-.481-1.776-.32-3.068.16-1.776.8-3.23 1.602-4.844.32-.646 1.122-1.938 1.122-1.938s-2.725 6.782-1.282 8.88c0 0 .16-2.098.8-4.198.482-1.453 1.283-3.552 2.245-4.682.961-1.13 3.365-5.329 3.525-7.912 0-1.13.16-2.261.16-3.069-.64-.645 10.578-2.26 11.219-.484.16.646 2.404 6.46 3.686 9.527.641 1.453 1.442 2.745 1.923 4.36.48 1.776.801 4.198.801 6.62 0 .485 0 1.292-.16 2.1.32 0 6.57-6.782-.801-12.434 0 0 4.487 2.1 4.647 6.297.16 3.391-1.282 6.136-1.602 6.62.16 0 3.365 1.454 3.526 1.454.64 0 1.923-.484 1.923-.484.16-.485.64-1.776.64-2.26 1.123-3.715-1.602-9.69-4.166-13.403z" fill="#263238"/><path d="M61.938 52.914c1.16 0 2.1-1.447 2.1-3.23 0-1.785-.94-3.23-2.1-3.23-1.16 0-2.1 1.445-2.1 3.23 0 1.784.94 3.23 2.1 3.23zm7.268.323c1.516 0 2.745-1.663 2.745-3.715 0-2.052-1.229-3.715-2.745-3.715-1.517 0-2.746 1.663-2.746 3.715 0 2.052 1.23 3.715 2.746 3.715z" fill="#ECEFF1"/><path d="M63.11 49.905c-.134-1.062-.745-1.86-1.364-1.781-.62.078-1.013 1.002-.879 2.064.134 1.062.745 1.86 1.365 1.781.62-.078 1.013-1.002.878-2.064zm5.934 2.363c.892 0 1.615-.94 1.615-2.1 0-1.16-.723-2.1-1.615-2.1s-1.615.94-1.615 2.1c0 1.16.723 2.1 1.615 2.1z" fill="#212121"/><path d="M90.526 85.702c-.646-.323-1.777-.808-2.746-2.261-.484-.808-.323-3.07-1.13-4.038-.485-.647-1.131-.323-1.293-.323-1.453.323-4.845 2.584-7.106 0-.324-.323-.808-.808-1.616-.808-.807 0-1.13.323-1.453.97-.323.645-.323 1.13-.323 2.745 0 1.292 0 2.746-.162 3.876-.323 2.746-.807 4.361-.807 5.976 0 1.777.484 2.908 1.13 3.392.485.485 1.292.808 3.07.808 1.776 0 2.906-.646 4.037-1.777.808-.808 1.454-1.13 3.715-2.746 1.776-1.13 4.522-2.584 5.007-3.069.323-.323.807-.484.807-1.453 0-.808-.646-1.13-1.13-1.292zm-32.465.484c-1.615-2.584-1.776-3.069-2.907-4.684-.97-1.615-3.069-4.684-4.361-4.684-.97 0-1.454.485-2.1 1.131-.646.646-1.292 2.1-2.422 2.907-.97.808-3.715.646-4.361 1.615-.646.97.646 2.423.646 4.846 0 .969-.808 1.615-.97 2.261-.161.808-.322 1.292 0 1.938.647.97 1.454 1.292 6.946 2.423 2.907.646 5.653 2.261 7.43 2.423 1.776.161 4.845 0 4.845-4.361.161-2.584-1.292-3.23-2.746-5.815zm3.069-29.234c-.97-.646-1.777-1.292-1.777-2.261 0-.97.646-1.292 1.615-2.1.162-.161 1.939-1.776 3.715-1.776 1.777 0 3.877 1.13 4.684 1.453 1.454.323 2.907.646 2.746 1.777-.162 1.615-.323 1.938-1.938 2.745-1.13.324-3.23 2.1-4.684 2.1-.646 0-1.615 0-2.261-.161-.485-.162-1.292-.97-2.1-1.777z" fill="#FFC107"/><path d="M60.807 55.66a3.52 3.52 0 001.292.808c.323.161.808.322.808.322h1.453c.808 0 1.939-.322 3.07-.969 1.13-.484 1.291-.807 2.099-1.13.807-.485 1.615-.97 1.292-1.13-.323-.162-.646 0-1.777.645-.969.646-1.776.97-2.745 1.454-.485.161-1.131.485-1.616.485H63.23c-.485 0-.808-.162-1.292-.324-.324-.161-.485-.323-.647-.323-.323-.161-.969-.807-1.292-.969 0 0-.323 0-.161.162l.969.969zm4.845-3.554c.162.323.485.323.646.485a.5.5 0 00.323.161c.162-.161 0-.484-.161-.484 0-.323-.808-.323-.808-.162zm-2.584.324c0 .16.323.322.323.16.162-.16.323-.322.485-.322.323-.162.161-.323-.323-.323-.323.161-.323.323-.485.484z" fill="#634703"/><path d="M78.975 80.9v.413c.3.55 1.05.687 1.65.687.9 0 1.8-.55 2.25-1.1 0-.137.15-.274.3-.412.3-.412.45-.687.6-.824 0 0-.15-.138-.15-.275-.15-.275-.6-.55-1.2-.687-.45-.138-1.2-.275-1.5-.275-1.35-.138-2.1.275-2.55.687 0 0 .15 0 .15.137.3.275.45.55.45.962.15.275 0 .413 0 .688z" fill="#455A64"/></svg>